<svg viewBox="0 0 189 168" fill="none" xmlns="http://www.w3.org/2000/svg"><path d="M160.444 92.3541C154.118 99.8511 168.878 100.788 168.878 112.502C168.878 119.765 165.328 131.01 134.871 131.01C104.414 131.01 82.31 126.09 74.344 138.741C66.378 151.392 125.968 167.792 125.968 167.792H14.45C-23.035 127.027 20.073 113.204 58.027 113.204H140.026C154.083 113.204 156.482 107.078 152.479 100.787C149.199 95.6331 155.759 92.1191 155.759 92.1191L160.445 92.3531L160.444 92.3541Z" fill="#E0E0E0"/><path d="M138.89 164.513H101.405C85.24 164.543 82.912 167.793 93.243 167.793H148.73C160.913 167.793 158.101 164.513 138.89 164.513Z" fill="#1C2635"/><path d="M24.853 72.3721L33.713 51.0371C33.883 50.6251 34.354 50.4291 34.766 50.5991C35.178 50.7691 35.373 51.2401 35.204 51.6521L26.376 72.7811L24.853 72.3721Z" fill="black"/><path d="M55.396 38.37C60.06 38.37 63.841 34.589 63.841 29.925C63.841 25.2609 60.06 21.48 55.396 21.48C50.732 21.48 46.951 25.2609 46.951 29.925C46.951 34.589 50.732 38.37 55.396 38.37Z" fill="white"/><path d="M58.5 29.9C58.7 29.7 58.7 29.4 58.5 29.1 58.3 28.9 57.9 28.8 57.7 29 57.5 29.2 57.5 29.6 57.7 29.8 57.9 30.1 58.3 30.1 58.5 29.9ZM62.3 28.2C62.5 28 62.5 27.7 62.3 27.4 62.1 27.2 61.7 27.1 61.5 27.3 61.3 27.5 61.3 27.9 61.5 28.1 61.7 28.4 62.1 28.4 62.3 28.2ZM61.7 31.4C61.7 31.4 61.7 31.4 61.7 31.4 61.6 31.4 61.6 31.3 61.5 31.3 61.5 31.2 61.6 31.1 61.6 31.1 61.6 31.1 62.1 31 62.2 30.7 62.3 30.5 62.3 30.4 62.2 30.2 62.1 29.8 61.5 29.6 61 29.3 60.4 29 59.8 28.7 59.6 28.2 59.6 28.2 59.6 28.1 59.7 28 59.8 28 59.8 28 59.9 28.1 60 28.5 60.6 28.8 61.1 29.1 61.7 29.4 62.3 29.6 62.5 30.1 62.6 30.4 62.6 30.6 62.5 30.8 62.3 31.2 61.9 31.3 61.7 31.4H61.7ZM55.4 21.5C55.4 21.2 55.4 20.9 55.3 20.6 54.9 19.2 53.4 18.5 52.1 18.9 51.8 19 51.6 19.1 51.4 19.3 50.8 18.3 49.6 17.8 48.4 18.1 47.6 18.3 47.1 18.9 46.8 19.6 46.2 19.1 45.3 18.9 44.5 19.2 43.1 19.6 42.3 21 42.8 22.4 42.8 22.5 42.9 22.7 42.9 22.8 41.9 23.4 41.3 24.7 41.7 25.8 42 26.8 42.8 27.5 43.7 27.6 43.7 27.9 43.7 28.2 43.8 28.5 44.2 29.8 45.6 30.6 47 30.2 47 31.2 47.2 32.1 47.6 33.1 47.6 33.1 48.2 33.3 49.2 33 49 32.8 48.7 32.6 48.6 32.4 47.8 31.5 48 30.1 48.9 29.4 49.8 28.6 51.2 28.8 52 29.7 52.2 30 52.3 30.4 52.4 30.7 54.6 28.7 55.3 27.8 56.6 26 58 24.1 59.8 23.6 61.6 24.2 59.9 22.4 57.7 21.5 55.4 21.5L55.4 21.5Z" fill="#1C2635"/><path d="M61.3 23.9C61.4 24 61.5 24.1 61.6 24.2 61.5 24.1 61.4 24 61.3 23.9ZM61.6 24.2C61 24 60.3 23.9 59.7 24 60.4 23.9 61.1 24 61.6 24.2ZM50.1 23.3C52.4 21.5 55.4 21 58.1 21.9 54.9 20.7 51 20.8 48.6 22.8 46.7 24.3 46.6 26.2 47.1 28.2 47.5 26.4 48.5 24.6 50.1 23.3Z" fill="#FFD255"/><path d="M34.9 158.8 47.3 118.3 31.8 90.3 27 95 34.6 120.4 27.2 157.7 34.9 158.8ZM63.8 157.6 71.7 157.5 71.5 122.7C71.5 119.9 70.6 117.2 68.9 114.9L48.5 86.8 38.7 93.9 59.4 122.4 63.8 157.6Z" fill="white"/><path d="M26.329 77.5371L48.619 86.2721L50.55 88.9671H50.552L50.551 88.9681L68.441 113.94L30.022 128.237L24.608 89.4371C23.975 84.8261 24.153 81.7551 26.33 77.5361L26.329 77.5371Z" fill="#1C2635"/><path d="M83.619 20.728L77.231 44.92C76.447 47.888 74.029 50.143 71.014 50.717L48.279 55.047L46.467 45.531L66.379 41.738C67.465 41.531 68.353 40.749 68.694 39.697L75.542 18.595L83.619 20.728Z" fill="white"/><path d="M77.128 21.459L75.543 18.595C76.884 14.164 79.865 10.694 82.553 8.93399C85.241 7.17399 87.734 6.48999 88.467 6.48999C89.2 6.48999 88.956 7.76099 88.467 8.00499C87.978 8.24899 85.974 9.47099 85.974 9.47099C85.974 9.47099 89.314 9.86199 90.478 10.204C91.642 10.546 91.35 11.426 90.959 11.621C90.568 11.816 90.128 11.865 90.128 11.865C90.959 12.354 91.057 13.087 89.835 13.478C88.613 13.869 88.027 13.576 88.027 13.576C88.027 13.576 89.249 14.016 89.835 14.358C90.421 14.7 89.444 15.678 88.467 15.482C87.49 15.286 85.29 15.287 85.29 15.287C85.29 15.287 85.81 19.324 83.62 20.727C81.43 22.13 77.129 21.458 77.129 21.458L77.128 21.459Z" fill="white"/><path d="M35.434 159.243C35.431 158.904 35.961 156.963 36.674 154.488H26.468L25.244 167.715L28.506 167.674L29.748 163.823L31.09 167.642L44.037 167.48L44.015 165.303C43.979 161.765 35.458 161.693 35.433 159.244L35.434 159.243Z" fill="#3EC1CF"/><path d="M30.4 165.8 44 165.6 44 167.5 31.1 167.6 30.4 165.8ZM28.5 167.7 25.2 167.7 25.4 165.9 29.1 165.8 28.5 167.7Z" fill="#1C2635"/><path d="M30.168 160.535C29.071 160.535 28.178 159.642 28.178 158.545V154.518C28.178 154.397 28.276 154.3 28.396 154.3C28.516 154.3 28.614 154.398 28.614 154.518V158.545C28.614 159.401 29.311 160.098 30.167 160.098C31.023 160.098 31.72 159.401 31.72 158.545V154.518C31.72 154.397 31.818 154.3 31.938 154.3C32.058 154.3 32.156 154.398 32.156 154.518V158.545C32.156 159.642 31.263 160.535 30.166 160.535H30.168Z" fill="white"/><path d="M73.238 159.243C73.175 158.904 73.365 156.963 73.644 154.488H63.438L64.534 167.715L67.789 167.674L68.356 163.823L70.368 167.642L83.287 167.48L82.883 165.303C82.227 161.765 73.692 161.693 73.238 159.244V159.243Z" fill="#3EC1CF"/><path d="M69.4 165.8 82.9 165.6 83.3 167.5 70.4 167.6 69.4 165.8ZM67.8 167.7 64.5 167.7 64.4 165.9 68.1 165.8 67.8 167.7Z" fill="#1C2635"/><path d="M68.298 160.535C67.201 160.535 66.308 159.642 66.308 158.545V154.518C66.308 154.397 66.406 154.3 66.526 154.3C66.646 154.3 66.744 154.398 66.744 154.518V158.545C66.744 159.401 67.441 160.098 68.297 160.098C69.153 160.098 69.85 159.401 69.85 158.545V154.518C69.85 154.397 69.948 154.3 70.068 154.3C70.188 154.3 70.286 154.398 70.286 154.518V158.545C70.286 159.642 69.393 160.535 68.296 160.535H68.298Z" fill="white"/><path d="M26.329 77.5371C26.329 77.5371 32.877 57.3781 35.689 47.1871C38.501 36.9961 49.641 39.6141 54.315 42.6181C59.235 45.7811 65.367 51.1231 61.695 59.1351C57.829 67.5691 48.62 86.2721 48.62 86.2721L26.33 77.5371H26.329Z" fill="#3EC1CF"/><path d="M48.734 47.6901C48.507 44.9481 47.744 42.8171 46.464 41.3561C45.944 40.7631 45.349 40.2901 44.682 39.9351C43.333 39.9831 42.006 40.2421 40.788 40.7801C42.697 40.6671 44.199 41.2171 45.251 42.4181C47.304 44.7621 47.757 49.5781 46.496 55.6321C45.316 61.2971 41.444 77.5861 41.405 77.7501C41.302 78.1831 41.57 78.6181 42.003 78.7211C42.066 78.7361 42.128 78.7431 42.19 78.7431C42.555 78.7431 42.886 78.4941 42.974 78.1231C43.013 77.9591 46.89 61.6481 48.075 55.9611C48.704 52.9421 48.932 50.0821 48.734 47.6901Z" fill="black"/><path d="M42.103 52.3681L19.522 63.7041L14.261 55.8471L36.925 42.7621C39.536 41.2551 42.874 42.1491 44.382 44.7601C45.952 47.4791 44.909 50.9591 42.103 52.3681Z" fill="white"/><path d="M17.759 53.6831L14.789 55.5711C11.536 57.6391 10.865 62.1071 13.368 65.0391C14.494 66.3581 16.111 67.1591 17.843 67.2541L41.312 68.0971L40.543 59.2861L19.35 58.2921L17.759 53.6831Z" fill="white"/><path d="M39.093 59.2872C39.093 59.2872 44.905 58.8102 47.872 58.7052C51.782 58.5662 51.152 60.2282 50.361 60.9012C49.658 61.5162 48.493 61.6362 48.493 61.6362C49.66 62.1482 49.515 63.7752 48.499 64.1032C49.193 65.2262 48.518 66.1502 47.651 66.4372C48.056 67.9302 46.512 69.1452 45.266 68.6042C44.971 68.4762 44.505 68.1942 44.27 67.1982C43.45 68.7792 40.352 68.5872 39.156 68.0712C37.5 67.3572 39.094 59.2872 39.094 59.2872H39.093Z" fill="white"/><path d="M28.836 58.7542C28.836 58.7542 28.826 58.7542 28.821 58.7542L21.968 58.0512C21.888 58.0432 21.83 57.9712 21.838 57.8912C21.846 57.8112 21.918 57.7532 21.998 57.7612L28.851 58.4642C28.931 58.4722 28.989 58.5442 28.981 58.6242C28.973 58.6992 28.91 58.7542 28.836 58.7542Z" fill="black"/><path d="M24.8589 72.2722L43.2589 77.3432L41.5439 83.5662C40.7641 86.3957 37.8336 88.0599 35.0041 87.2801L26.8578 85.035C24.0283 84.2552 22.3641 81.3247 23.1439 78.4952L24.8589 72.2722Z" fill="white"/><path d="M41.543 76.87L40.921 76.699L39.91 79.95C39.573 81.035 38.831 81.919 37.821 82.44C36.811 82.961 35.66 83.052 34.581 82.699L23.048 78.917C23.006 79.134 22.977 79.352 22.963 79.568L34.38 83.312C34.878 83.475 35.389 83.556 35.898 83.556C36.661 83.556 37.418 83.374 38.117 83.013C39.281 82.412 40.137 81.393 40.526 80.142L41.544 76.871L41.543 76.87Z" fill="#3EC1CF"/><path d="M24.859 72.272L22.277 75.109C21.097 76.406 21.651 78.489 23.32 79.027L32.643 82.036L28.25 73.192L24.859 72.272Z" fill="white"/><path d="M60.952 34.2381C60.586 35.2911 59.351 34.6821 59.029 33.9791C58.707 33.2761 58.847 32.8271 58.847 32.8271C58.847 32.8271 59.936 33.3341 61.108 33.3051C61.108 33.3051 61.108 33.7891 60.952 34.2381Z" fill="black"/><path d="M58.897 33.6132C59.702 33.5692 60.669 34.0962 60.713 34.6232C60.401 34.9502 59.732 34.7992 59.337 34.4332C59 34.0962 58.897 33.6132 58.897 33.6132Z" fill="#B3B3B3"/><path d="M81.909 10.3401L101.203 118.366L98.941 118.77C85.565 121.159 76.576 134.058 78.965 147.434C81.354 160.81 94.253 169.799 107.629 167.41L132.515 162.965C145.891 160.576 154.88 147.677 152.491 134.301C150.102 120.925 137.203 111.935 123.827 114.325L118.171 115.335L105.813 46.1451L130.133 41.8011L128.012 29.9241L118.598 31.6051L116.611 20.4821L126.025 18.8011L123.904 6.92406L99.584 11.2681L98.877 7.30906C98.04 2.62406 93.563 -0.495945 88.878 0.340055C84.193 1.17706 81.073 5.65506 81.909 10.3401ZM119.101 129.813C124.672 128.818 130.044 132.562 131.039 138.133C132.034 143.704 128.29 149.076 122.719 150.071L112.354 151.922C106.783 152.917 101.411 149.173 100.416 143.602C99.421 138.031 103.165 132.659 108.736 131.664L119.101 129.813Z" fill="#3EC1CF"/><path d="M79.704 13.0981C82.428 10.6381 83.853 9.94513 84.731 10.5601C85.609 11.1751 84.536 12.1321 84.009 12.7471C83.482 13.3621 82.34 14.5921 82.34 14.5921C82.34 14.5921 83.57 15.7341 82.867 18.2821" fill="white"/><path d="M82.867 18.428C82.854 18.428 82.841 18.426 82.828 18.423C82.751 18.402 82.705 18.321 82.726 18.244C83.398 15.81 82.252 14.71 82.24 14.699L82.133 14.6L82.232 14.493C82.243 14.481 83.378 13.258 83.898 12.652C83.965 12.573 84.041 12.489 84.121 12.401C84.495 11.988 84.961 11.473 84.916 11.07C84.899 10.922 84.811 10.794 84.647 10.679C83.827 10.105 82.423 10.837 79.801 13.206C79.742 13.26 79.649 13.255 79.595 13.196C79.541 13.137 79.546 13.044 79.606 12.99C82.387 10.478 83.847 9.76401 84.814 10.441C85.047 10.604 85.179 10.805 85.205 11.038C85.265 11.572 84.75 12.14 84.337 12.597C84.259 12.683 84.185 12.765 84.119 12.842C83.683 13.35 82.819 14.287 82.537 14.592C82.828 14.938 83.612 16.124 83.006 18.32C82.988 18.385 82.93 18.427 82.866 18.427L82.867 18.428Z" fill="#231F20"/><path d="M184.608 76.8992H153.957V91.8542H184.608V76.8992Z" fill="#3EC1CF"/><path d="M153.957 76.8992V91.8542H162.307L163.862 91.8592L160.464 76.8992H153.957Z" fill="#1F9AAD"/><path d="M184.608 54.1331H143.115V76.8991H184.608V54.1331Z" fill="#BDE6ED"/><path d="M184.608 54.1331H143.115V60.3871H184.608V54.1331Z" fill="#3EC1CF"/><path d="M184.6 59.7H143.1V60.4H184.6V59.7ZM184.6 58.2H143.1V58.9H184.6V58.2ZM184.6 56.7H143.1V57.4H184.6V56.7ZM184.6 55.2H143.1V55.9H184.6V55.2Z" fill="#1F9AAD"/><path d="M153.957 76.8992H131.653V91.8542H153.957V76.8992Z" fill="#3EC1CF"/><path d="M148.441 80.4761H137.161V91.7561H148.441V80.4761Z" fill="#1F9AAD"/><path d="M147.952 80.9661H137.652V91.2661H147.952V80.9661Z" fill="white"/><path d="M143.1 80.5H142.5V91.7H143.1V80.5ZM179.1 80.5H167.9V91.8H179.1V80.5Z" fill="#1F9AAD"/><path d="M178.641 80.9661H168.341V91.2661H178.641V80.9661Z" fill="white"/><path d="M173.8 80.5H173.2V91.7H173.8V80.5ZM179.1 62.7H167.9V74H179.1V62.7Z" fill="#1F9AAD"/><path d="M178.641 63.2041H168.341V73.5041H178.641V63.2041Z" fill="white"/><path d="M173.78 62.7131H173.201V73.8951H173.78V62.7131Z" fill="#1F9AAD"/><path d="M160.928 80.4761H155.113V91.7561H160.928V80.4761Z" fill="#93D4DE"/><path d="M160.464 80.9661H155.603V91.2661H160.464V80.9661Z" fill="#1C2635"/><path d="M134.5 56.8H131.7V76.9H134.5V56.8ZM154 56.8H151.1V76.9H154V56.8Z" fill="#BDE6ED"/><path d="M152.958 76.8979V74.0669H133.224V76.8979H152.958Z" fill="#BDE6ED"/><path d="M144.39 48.3689H141.569L134.482 55.4549V74.0679H151.121V55.0989L144.39 48.3689Z" fill="#1C2635"/><path d="M144.879 47.7H141.079L134.998 54.287V62.787V73.577H150.605V62.787V61.5569V53.902L144.879 47.7Z" fill="white"/><path d="M143.091 48.5789H142.512V73.9699H143.091V48.5789Z" fill="#1C2635"/><path d="M150.9 66V65.4H134.7V66H150.9ZM135 57.3V54.3L142.8 45.8 150.6 54.3V57.3H135Z" fill="#1C2635"/><path d="M131.653 59.806L144.801 46.658L142.799 44.656L131.653 55.802V59.806Z" fill="#BDE6ED"/><path d="M153.955 55.807L142.804 44.656L140.802 46.658L153.955 59.811V55.807Z" fill="#BDE6ED"/><path d="M151.069 56.932L143.211 49.074L142.802 48.665L134.535 56.932L134.944 57.341L134.998 57.287V57.448H150.721V57.28L151.069 56.932ZM142.802 49.483L150.101 56.782H135.502L142.801 49.483H142.802Z" fill="#1C2635"/><path d="M153.957 76.899V60.387H156.36L160.464 76.899H153.957Z" fill="#93D4DE"/><path d="M187.409 91.7561H128.812C128.566 91.7561 128.366 91.9558 128.366 92.2021C128.366 92.4484 128.566 92.6481 128.812 92.6481H187.409C187.655 92.6481 187.855 92.4484 187.855 92.2021C187.855 91.9558 187.655 91.7561 187.409 91.7561Z" fill="#1C2635"/><path d="M172.6 38.9 169.1 45.1 169.6 45.3 173.1 39.2 172.6 38.9ZM161.3 36.8 160.9 43.9 161.5 44 161.8 36.9 161.3 36.8ZM150.9 37.9 150.4 38.2 153.5 44.6 154 44.3 150.9 37.9ZM66.9 3.2C65.6 3.2 64.4 4 63.7 5 63 4 61.8 3.2 60.5 3.2 58.4 3.2 56.7 4.9 56.7 7 56.7 8 57 8.9 57.7 9.6 58.5 10.6 63.7 14.9 63.7 14.9 63.7 14.9 68.8 10.6 69.7 9.6 70.3 8.9 70.7 8 70.7 7 70.7 4.9 69 3.2 66.9 3.2Z" fill="#3EC1CF"/><path d="M48.5 64.2C48.5 64.2 48.4 64.2 48.4 64.2L47.1 63.2C47 63.2 47 63.1 47.1 63 47.1 62.9 47.2 62.9 47.3 63L48.6 64C48.7 64 48.7 64.1 48.6 64.2 48.6 64.2 48.5 64.2 48.5 64.2ZM48.7 61.9C48.7 61.9 48.7 61.9 48.6 61.8L47.3 60.8C47.3 60.8 47.3 60.7 47.3 60.6 47.4 60.6 47.5 60.6 47.5 60.6L48.8 61.6C48.9 61.7 48.9 61.7 48.8 61.8 48.8 61.8 48.8 61.9 48.7 61.9ZM47.6 66.6C47.6 66.6 47.6 66.6 47.6 66.6L46.2 65.6C46.2 65.5 46.2 65.4 46.2 65.4 46.3 65.3 46.4 65.3 46.4 65.3L47.7 66.3C47.8 66.4 47.8 66.5 47.8 66.5 47.7 66.6 47.7 66.6 47.6 66.6ZM44.3 67.2C44.9 67.9 45.4 67.8 45.4 67.8L44.9 69.8 43.4 69.3 43.6 68.8C43.6 68.8 44.2 67.8 44.3 67.2Z" fill="black"/><path d="M186.684 77.314C187.168 76.101 186.577 74.726 185.364 74.242C184.151 73.758 182.776 74.349 182.292 75.562C181.079 75.078 179.704 75.669 179.22 76.882C178.736 78.095 179.327 79.47 180.54 79.954C180.56 79.962 180.581 79.969 180.602 79.977C180.448 81.034 181.03 82.098 182.066 82.511C183.102 82.924 184.256 82.553 184.872 81.68C184.892 81.689 184.912 81.698 184.932 81.706C186.145 82.19 187.52 81.599 188.004 80.386C188.488 79.173 187.897 77.798 186.684 77.314Z" fill="#93D4DE"/><path d="M184.433 91.8251H182.998L183.173 81.1541H184.257L184.433 91.8251Z" fill="#1C2635"/></svg>