<svg width="96" height="97" viewBox="0 0 96 97" fill="none" xmlns="http://www.w3.org/2000/svg">
<g id="category/apartment">
<path id="Vector" d="M21.46 78.6392H49.0552V21.0392C49.0552 20.4294 48.813 19.8446 48.3818 19.4134C47.9506 18.9822 47.3658 18.74 46.756 18.74H21.46C20.8604 18.74 20.2854 18.9782 19.8614 19.4022C19.4374 19.8261 19.1992 20.4012 19.1992 21.0008V76.3784C19.1992 76.978 19.4374 77.553 19.8614 77.977C20.2854 78.401 20.8604 78.6392 21.46 78.6392Z" fill="#006F94"/>
<path id="Vector_2" d="M76.3448 76.3784V26.6985C76.3448 26.0989 76.1066 25.5238 75.6827 25.0998C75.2587 24.6758 74.6836 24.4377 74.084 24.4377H51.332V78.6392H74.084C74.6836 78.6392 75.2587 78.4011 75.6827 77.9771C76.1066 77.5531 76.3448 76.9781 76.3448 76.3784ZM67.7048 69.0392C67.7048 69.6389 67.4666 70.2139 67.0427 70.6379C66.6187 71.0619 66.0436 71.3 65.444 71.3H62.372C61.7724 71.3 61.1974 71.0619 60.7734 70.6379C60.3494 70.2139 60.1112 69.6389 60.1112 69.0392V65.9672C60.1112 65.3676 60.3494 64.7926 60.7734 64.3686C61.1974 63.9446 61.7724 63.7064 62.372 63.7064H65.444C66.0436 63.7064 66.6187 63.9446 67.0427 64.3686C67.4666 64.7926 67.7048 65.3676 67.7048 65.9672V69.0392ZM67.7048 53.0169C67.7048 53.6165 67.4666 54.1915 67.0427 54.6155C66.6187 55.0395 66.0436 55.2777 65.444 55.2777H62.372C61.7724 55.2777 61.1974 55.0395 60.7734 54.6155C60.3494 54.1915 60.1112 53.6165 60.1112 53.0169V49.9401C60.1112 49.6432 60.1697 49.3492 60.2833 49.0749C60.3969 48.8006 60.5635 48.5514 60.7734 48.3414C60.9833 48.1315 61.2326 47.965 61.5069 47.8513C61.7811 47.7377 62.0751 47.6793 62.372 47.6793H65.444C66.0436 47.6793 66.6187 47.9174 67.0427 48.3414C67.4666 48.7654 67.7048 49.3405 67.7048 49.9401V53.0169ZM67.7048 36.9897C67.7048 37.5893 67.4666 38.1643 67.0427 38.5883C66.6187 39.0123 66.0436 39.2505 65.444 39.2505H62.372C62.0743 39.2505 61.7796 39.1917 61.5046 39.0774C61.2297 38.9632 60.9801 38.7958 60.77 38.5849C60.5599 38.3739 60.3936 38.1236 60.2806 37.8482C60.1675 37.5728 60.11 37.2778 60.1112 36.9801V33.9081C60.1112 33.3084 60.3494 32.7334 60.7734 32.3094C61.1974 31.8854 61.7724 31.6473 62.372 31.6473H65.444C66.0436 31.6473 66.6187 31.8854 67.0427 32.3094C67.4666 32.7334 67.7048 33.3084 67.7048 33.9081V36.9897Z" fill="#006F94"/>
</g>
</svg>
