<svg width="96" height="97" viewBox="0 0 96 97" fill="none" xmlns="http://www.w3.org/2000/svg">
<g id="category/house">
<path id="Vector" d="M18.2649 47.3283H22.6569V75.7587C22.6632 76.1436 22.8208 76.5105 23.0958 76.7801C23.3707 77.0496 23.7407 77.2 24.1257 77.1987H42.8841C42.8841 77.1651 42.8841 77.1315 42.8841 77.0931V65.4003C42.8841 64.988 42.9652 64.5798 43.123 64.1989C43.2808 63.8181 43.512 63.472 43.8035 63.1805C44.095 62.889 44.4411 62.6578 44.8219 62.5C45.2028 62.3423 45.611 62.2611 46.0233 62.2611H50.2857C50.6979 62.2611 51.1061 62.3423 51.487 62.5C51.8678 62.6578 52.2139 62.889 52.5054 63.1805C52.7969 63.472 53.0281 63.8181 53.1859 64.1989C53.3437 64.5798 53.4249 64.988 53.4249 65.4003V77.1171C53.4249 77.1555 53.4249 77.1891 53.4249 77.2227H72.1833C72.5682 77.224 72.9382 77.0736 73.2132 76.8041C73.4881 76.5345 73.6457 76.1676 73.6521 75.7827V47.3283H78.0441C78.3475 47.3323 78.6447 47.2422 78.8949 47.0704C79.1451 46.8986 79.3359 46.6535 79.4411 46.3689C79.5464 46.0842 79.5608 45.774 79.4826 45.4808C79.4043 45.1876 79.2371 44.9258 79.0041 44.7315L49.0857 20.0355C48.8219 19.8186 48.4911 19.7 48.1497 19.7C47.8082 19.7 47.4774 19.8186 47.2136 20.0355L17.3289 44.7315C17.0974 44.9245 16.9309 45.1841 16.852 45.475C16.7731 45.7659 16.7856 46.074 16.8878 46.3575C16.99 46.6411 17.177 46.8863 17.4233 47.06C17.6696 47.2336 17.9635 47.3273 18.2649 47.3283Z" fill="#1C2637"/>
</g>
</svg>
