<svg width="160" height="26" viewBox="0 0 160 26" fill="none" xmlns="http://www.w3.org/2000/svg">
<path fill-rule="evenodd" clip-rule="evenodd" d="M1.88769 11.6557C1.47007 11.2572 0.74706 11.2804 0.74706 11.2804H0V7.52369H7.21149V24.9717H2.2594V12.7294C2.2594 12.7294 2.27033 12.0666 1.88769 11.6557ZM79.6339 11.6557C79.2163 11.2572 78.4933 11.2804 78.4933 11.2804H77.7463V7.52369H84.9577V24.9717H80.0057V12.7294C80.0057 12.7294 80.0166 12.0666 79.6339 11.6557ZM4.60371 0.487061C6.04316 0.487061 7.21149 1.68895 7.21149 3.16975C7.21149 4.65018 6.04316 5.85245 4.60371 5.85245C3.16462 5.85245 1.99592 4.65018 1.99592 3.16975C1.99592 1.68895 3.16462 0.487061 4.60371 0.487061ZM82.35 0.487061C83.7894 0.487061 84.9577 1.68895 84.9577 3.16975C84.9577 4.65018 83.7894 5.85245 82.35 5.85245C80.9109 5.85245 79.7422 4.65018 79.7422 3.16975C79.7422 1.68895 80.9109 0.487061 82.35 0.487061ZM26.6642 10.7522C26.6842 10.6941 26.705 10.6368 26.7261 10.5802C27.1696 9.39138 27.8249 8.49466 28.6914 7.88959C29.558 7.2849 30.6207 6.98236 31.8794 6.98236H32.0958C33.3753 6.98236 34.4533 7.2849 35.3304 7.88959C36.2072 8.49466 36.8726 9.39138 37.3267 10.5802C37.7804 11.7689 38.0075 13.2546 38.0075 15.0376V24.9717H33.0554V14.7512C33.0554 13.7959 32.813 13.021 32.328 12.4269C31.8433 11.8327 31.1571 11.5354 30.2697 11.5354C29.3827 11.5354 28.6809 11.8379 28.1652 12.4426C27.6492 13.0477 27.3916 13.8492 27.3916 14.8467V24.9717H22.4085V14.7512C22.4085 13.7959 22.1658 13.021 21.6811 12.4269C21.1961 11.8327 20.5204 11.5354 19.6539 11.5354C18.7457 11.5354 18.034 11.8379 17.518 12.4426C17.0023 13.0477 16.7443 13.8492 16.7443 14.8467V24.9717H11.7922V7.52369H15.7229V11.9181C15.8209 11.4368 15.9448 10.9907 16.0946 10.5802C16.5279 9.39138 17.1776 8.49466 18.0442 7.88959C18.9108 7.2849 19.9734 6.98236 21.2321 6.98236H21.449C22.7281 6.98236 23.7958 7.2849 24.6522 7.88959C25.5086 8.49466 26.1584 9.39138 26.6022 10.5802C26.6234 10.6368 26.6438 10.6941 26.6642 10.7522ZM71.8656 24.9717H64.0044L58.9284 7.52369H64.0354L67.6449 20.737H68.377L71.4943 7.52369H76.2609L71.8656 24.9717ZM93.4695 13.2895C93.659 11.6422 94.1385 10.3147 94.9086 9.30666C95.93 7.96944 97.4103 7.30064 99.3501 7.30064H99.9999V11.6947H98.7619C97.4001 11.6947 96.3477 12.0715 95.605 12.825C94.8623 13.5785 94.4906 14.6664 94.4906 16.0884V24.9717H89.5385V7.52369H93.4695V13.2895ZM111.498 25.4174C109.746 25.4174 108.316 25.1918 107.246 24.7464C106.194 24.3078 105.409 23.5726 104.915 22.5608C104.413 21.5359 104.158 20.1188 104.158 18.349L104.173 11.1507H101.486V7.63241H102.596C103.47 7.63241 104.182 6.9145 104.183 6.03239L104.19 2.81136H108.662V7.63241H113.104V11.1507H108.662V18.7909C108.662 19.679 108.899 20.3692 109.368 20.8423C109.838 21.318 110.511 21.5587 111.369 21.5587H113.104V25.4174H111.498ZM127.855 20.9492C127.765 21.3319 127.657 21.6911 127.531 22.0266C127.087 23.2045 126.432 24.0802 125.565 24.6534C124.698 25.2263 123.626 25.513 122.346 25.513H122.13C120.169 25.513 118.663 24.8604 117.611 23.555C116.558 22.2493 116.032 20.2807 116.032 17.6487V7.52369H120.985V17.9032C120.985 18.8374 121.242 19.5801 121.758 20.1319C122.274 20.6841 122.965 20.96 123.832 20.96C124.719 20.96 125.441 20.6733 125.999 20.1C126.555 19.5272 126.834 18.7523 126.834 17.7757V7.52369H131.786V24.9717H127.855V20.9492ZM146.612 21.6258C146.477 22.0675 146.307 22.4716 146.101 22.8386C145.637 23.6663 144.997 24.3029 144.182 24.7486C143.367 25.1948 142.371 25.4174 141.195 25.4174C139.978 25.4174 138.91 25.1948 137.992 24.7486C137.074 24.3029 136.357 23.6611 135.841 22.8225C135.325 21.9842 135.067 20.981 135.067 19.8136C135.067 18.5401 135.387 17.4946 136.026 16.6773C136.666 15.8601 137.564 15.2554 138.719 14.8625C139.875 14.47 141.205 14.2735 142.712 14.2735H145.776V14.2098C145.776 13.3183 145.57 12.6499 145.157 12.2038C144.744 11.7581 144.084 11.5354 143.176 11.5354C142.722 11.5354 142.124 11.5459 141.381 11.5672C140.638 11.5882 139.875 11.6201 139.091 11.6628C138.306 11.7052 137.595 11.7476 136.955 11.7899V7.49183C137.43 7.44909 137.987 7.40673 138.626 7.36437C139.266 7.32201 139.926 7.29014 140.607 7.26877C141.288 7.2474 141.928 7.23691 142.526 7.23691C144.259 7.23691 145.719 7.49183 146.906 8.0013C148.092 8.5104 148.995 9.28005 149.614 10.3095C150.233 11.3389 150.542 12.6604 150.542 14.2735V24.9717H146.612V21.6258ZM145.776 17.1073H142.681C141.814 17.1073 141.149 17.3248 140.685 17.76C140.22 18.1952 139.988 18.7842 139.988 19.5272C139.988 20.2275 140.22 20.7955 140.685 21.2307C141.149 21.6656 141.814 21.8834 142.681 21.8834C143.238 21.8834 143.739 21.7825 144.182 21.5808C144.626 21.3792 144.992 21.0343 145.281 20.5462C145.57 20.0577 145.735 19.3784 145.776 18.5083V17.1073ZM154.73 5.7546C154.444 5.47494 153.811 5.48581 153.811 5.48581H152.957V1.72869H159.951V24.9717H154.968V6.66146C154.968 6.66146 155.007 6.03614 154.73 5.7546Z" fill="#464B53"/>
<path d="M44.0324 16.2468C44.0409 19.0167 46.2306 21.2553 48.9232 21.2465C51.6158 21.2378 53.7917 18.9852 53.7833 16.2152C53.7748 13.4514 51.5945 11.2156 48.9079 11.2156C46.2136 11.218 44.0312 13.4661 44.0324 16.2378V16.2468ZM57.3872 24.972H40.4219V7.5238H57.3807L57.3872 24.972Z" fill="#3EC1CF"/>
</svg>
